<?xml version="1.0" encoding="UTF-8"?>
<svg id="_图层_1" data-name="图层 1" xmlns="http://www.w3.org/2000/svg" viewBox="0 0 587.63 472.54">
  <defs>
    <style>
      .cls-1 {
        fill: #0090df;
      }

      .cls-2 {
        fill: #f7931e;
      }

      .cls-3 {
        fill: #6c3891;
      }

      .cls-4 {
        fill: #673588;
      }

      .cls-5 {
        fill: #29abe2;
      }

      .cls-6 {
        fill: #7aaef9;
      }
    </style>
  </defs>
  <g id="Group_1209" data-name="Group 1209">
    <path id="Path_319" data-name="Path 319" class="cls-1" d="M458.61,284.64c-6.57-.31-12.53-3.92-15.84-9.61-8.13-13.59-20.19-24.4-34.6-30.98-.26-.12-.44-.35-.5-.63-1.76-8.4-8.77-28.55-15.94-37.13-.27-.41-.16-.96,.25-1.23,.35-.23,.81-.19,1.11,.1,7.33,8.8,14.24,28.48,16.15,37.47,14.56,6.75,26.75,17.73,34.99,31.5,3.66,6.12,11.43,10.79,19.16,7.86l77.69-28.25c.47-.13,.95,.14,1.1,.6,.13,.43-.09,.89-.5,1.07l-77.69,28.25c-1.72,.64-3.54,.98-5.38,.98Z"/>
    <path id="Path_320" data-name="Path 320" class="cls-1" d="M364.89,454.4c-.48,0-.87-.39-.87-.87h0v-43.67c0-7.77-6.3-14.06-14.06-14.06h-20.2c-7.77,0-14.06,6.3-14.06,14.06h0v22.83c0,.49-.4,.89-.89,.89-.48,0-.87-.4-.87-.89v-22.83c.02-8.73,7.09-15.8,15.82-15.82h20.21c8.73,.02,15.8,7.09,15.82,15.82v43.67c0,.48-.39,.87-.87,.87-.01,0-.02,0-.03,0Z"/>
    <path id="Path_321" data-name="Path 321" class="cls-1" d="M123.9,268.97c-3.51,0-6.92-1.17-9.69-3.33L23.64,195.34c-.38-.3-.45-.86-.15-1.24,.28-.38,.82-.45,1.2-.17,0,0,.02,.01,.03,.02h0l90.56,70.3c6.14,4.76,14.98,3.65,19.75-2.49,6.2-8.35,13.9-15.47,22.72-20.99,3.94-10.43,10.34-19.74,18.66-27.16,6.2-4.71,7.41-13.55,2.71-19.75,0,0,0,0-.01-.01l-14.53-18.97c-.29-.38-.22-.93,.16-1.23,.38-.29,.93-.22,1.23,.16h0l14.53,18.99c5.27,6.93,3.98,16.81-2.89,22.15-8.17,7.27-14.43,16.43-18.24,26.67-.07,.18-.19,.33-.36,.44-8.77,5.43-16.43,12.48-22.57,20.76-3,3.87-7.63,6.14-12.53,6.14Z"/>
    <path id="Path_322" data-name="Path 322" class="cls-1" d="M146.49,374.06c-.22,0-.44-.09-.6-.24-17.43-15.91-27.39-38.4-27.45-62,0-7.77-6.3-14.06-14.06-14.06H29.85c-.49,0-.89-.4-.89-.89h0c0-.48,.4-.87,.89-.87H104.43c8.73,.02,15.8,7.09,15.82,15.82,.03,23.1,9.76,45.13,26.82,60.71,.34,.34,.35,.89,.01,1.23,0,0,0,0-.01,.01-.17,.18-.4,.29-.65,.29h.06Z"/>
    <path id="Path_323" data-name="Path 323" class="cls-1" d="M131.65,433.6c-.48,0-.87-.39-.87-.87,0-.14,.03-.28,.1-.41l19.47-37.57c3.87-7.48,12.61-10.25,21.26-6.75,9.79,3.99,20.27,6.03,30.84,6.01h7.27c8.73,.02,15.8,7.09,15.82,15.82v22.85c0,.48-.39,.88-.87,.89-.49,0-.89-.4-.89-.89v-22.83c0-7.77-6.3-14.06-14.06-14.08h-7.27c-10.8,.02-21.51-2.06-31.52-6.14-7.77-3.13-15.6-.71-19.04,5.94l-19.5,37.55c-.15,.28-.43,.45-.74,.47Z"/>
    <path id="Path_324" data-name="Path 324" class="cls-1" d="M432.28,437.17c-.31,0-.6-.17-.76-.44l-19.81-33c-4.47-7.5-2.04-17.21,5.44-21.72,22.96-14.32,36.9-39.49,36.86-66.55v-2.32c-.73-8.67,5.67-16.31,14.34-17.11l31.13-2.76c.49-.04,.91,.32,.95,.81,.03,.48-.33,.89-.81,.94l-31.11,2.78c-7.72,.72-13.41,7.53-12.74,15.26v2.42c.05,27.68-14.21,53.41-37.7,68.05-6.68,3.99-8.86,12.65-4.87,19.33,0,.02,.02,.03,.03,.05l19.81,33.02c.25,.42,.11,.96-.31,1.21h0c-.14,.06-.3,.07-.45,.05Z"/>
    <path id="Path_325" data-name="Path 325" class="cls-1" d="M296.04,465.57c-.48,0-.88-.39-.89-.87v-67.31c0-7.77-6.3-14.06-14.06-14.06h-78.63c-17.8,0-34.95-6.65-48.1-18.65-5.82-5.12-14.69-4.57-19.83,1.24l-59.27,66.76c-.32,.36-.88,.4-1.24,.08-.37-.31-.41-.86-.09-1.23,0,0,0,0,.01-.01h0l59.27-66.68c5.79-6.54,15.78-7.16,22.33-1.39,12.82,11.71,29.56,18.2,46.92,18.2h78.63c8.73,.02,15.8,7.09,15.82,15.82v67.29c0,.48-.39,.88-.87,.89v-.08Z"/>
    <path id="Path_326" data-name="Path 326" class="cls-1" d="M84.54,370.59c-.48,0-.87-.39-.87-.87,0-.37,.22-.7,.57-.84l42.35-15.87c7.25-2.75,10.91-10.85,8.19-18.12-11.2-32.9,2.86-69.08,33.32-85.8,8.41-29.25,38.76-46.3,68.12-38.28,.48,.11,.77,.59,.66,1.07-.11,.47-.58,.76-1.05,.65,0,0-.01,0-.02,0h0c-28.56-7.8-58.07,8.91-66.07,37.43-.06,.23-.21,.42-.42,.53-29.93,16.18-43.83,51.59-32.89,83.81,3.06,8.17-1.07,17.27-9.24,20.34l-42.33,15.89c-.1,.04-.21,.06-.32,.06Z"/>
    <path id="Path_327" data-name="Path 327" class="cls-1" d="M401.44,231.78c-6.3-.03-11.99-3.77-14.53-9.54-6.46-12.03-15.61-22.4-26.74-30.3-.41-.26-.53-.8-.27-1.21,.26-.41,.8-.53,1.21-.27h.08c11.37,8.09,20.71,18.69,27.3,30.98,3.09,7.16,11.39,10.46,18.55,7.39l107.22-46.37c.43-.2,.94,0,1.13,.42,0,0,0,.02,.01,.03,.19,.45,0,.96-.45,1.16l-107.22,46.37c-1.98,.88-4.13,1.33-6.3,1.34Z"/>
    <path id="Path_328" data-name="Path 328" class="cls-1" d="M419.31,235.59c-.4,0-.75-.26-.86-.65-1.74-6.5-4.06-12.84-6.91-18.94-4.28-7.6-1.62-17.23,5.96-21.55l12.25-6.73c.45-.24,1-.07,1.24,.38,.24,.45,.07,1-.38,1.24h0l-12.25,6.73c-6.75,3.86-9.1,12.46-5.25,19.21,2.91,6.21,5.26,12.67,7.04,19.29,.13,.46-.14,.95-.6,1.08,0,0,0,0-.01,0l-.23-.06Z"/>
    <path id="Path_329" data-name="Path 329" class="cls-1" d="M485.56,379.01c-.12,.02-.24,.02-.36,0l-17.49-7.41c-8.04-3.42-11.8-12.71-8.4-20.76,2.79-6.58,4.78-13.48,5.93-20.54,1.61-9.32,8.49-15.13,17.05-14.43l84.28,6.83c.48,.03,.84,.45,.81,.93,0,0,0,0,0,0h0c-.04,.48-.46,.84-.94,.81l-84.28-6.81c-7.59-.61-13.71,4.6-15.18,12.92-1.18,7.21-3.21,14.26-6.05,20.99-3.01,7.16,.32,15.4,7.46,18.45l17.49,7.41c.44,.18,.66,.69,.47,1.14,0,0,0,0,0,0-.13,.33-.45,.55-.81,.55l.02-.08Z"/>
    <path id="Path_330" data-name="Path 330" class="cls-1" d="M502.38,423.56c-.23,0-.45-.1-.61-.26l-41.62-41.56c-2.64-2.64-6.23-4.12-9.96-4.1h0c-3.73-.02-7.31,1.46-9.95,4.1-12.51,12.27-28.24,20.75-45.37,24.44-.47,.09-.94-.21-1.05-.68-.1-.48,.2-.94,.68-1.05h0c16.86-3.59,32.35-11.91,44.66-23.98,2.96-2.97,6.99-4.62,11.19-4.6h0c4.2-.02,8.22,1.65,11.19,4.62l41.56,41.56c.34,.35,.33,.92-.03,1.26-.16,.16-.38,.24-.6,.25h-.08Z"/>
    <path id="Path_331" data-name="Path 331" class="cls-1" d="M115.7,272.84c-.12,.02-.25,.02-.37,0-.44-.2-.64-.71-.44-1.15,0,0,0,0,0-.01,5.27-11.37,12.63-21.66,21.68-30.32,2.62-2.54,4.11-6.03,4.13-9.69,.03-3.81-1.46-7.47-4.15-10.17l-41.56-41.59c-.34-.35-.34-.9,0-1.24,.32-.34,.87-.36,1.21-.03,.01,.01,.02,.02,.03,.03h0l41.56,41.56c3.02,3.03,4.7,7.14,4.67,11.41,0,4.14-1.7,8.1-4.68,10.98-8.89,8.52-16.11,18.61-21.31,29.77-.15,.28-.45,.46-.77,.45Z"/>
    <g id="Group_1197" data-name="Group 1197">
      <circle id="Ellipse_11" data-name="Ellipse 11" class="cls-6" cx="95.63" cy="179.28" r="23.04"/>
    </g>
    <path id="Path_332" data-name="Path 332" class="cls-1" d="M285.6,152.77c-7.39,0-13.79-5.12-15.44-12.32l-8.07-36.23c-.11-.47,.19-.94,.66-1.05,.47-.11,.94,.19,1.05,.66l8.07,36.23c1.69,7.58,9.19,12.36,16.78,10.69,6.56-1.15,13.21-1.73,19.88-1.73,7.77-.02,14.05-6.31,14.06-14.08,0-.48,.4-.87,.89-.87,.48,0,.87,.39,.87,.87,0,8.74-7.08,15.82-15.82,15.82h0c-6.54-.01-13.07,.53-19.52,1.63-1.12,.25-2.26,.37-3.41,.37Z"/>
    <path id="Path_333" data-name="Path 333" class="cls-1" d="M240.57,200.8c-5.05,0-9.8-2.39-12.79-6.46l-49.74-67.81c-.33-.36-.31-.92,.06-1.25,.36-.33,.92-.31,1.25,.06,.04,.05,.08,.1,.11,.15l49.74,67.81c4.6,6.25,13.39,7.6,19.67,3.04,16.53-14.49,37.76-22.48,59.74-22.47,9.88-.02,19.69,1.57,29.06,4.68,7.04,3.34,15.46,.33,18.79-6.71,0,0,0,0,0,0h0l17.23-36.76c.22-.43,.75-.6,1.18-.39,.42,.2,.6,.71,.4,1.13l-17.23,36.76c-3.72,7.87-13.09,11.27-20.99,7.62-12.6-4.17-25.96-5.5-39.14-3.91-17.76,2.14-34.45,9.62-47.87,21.44-2.75,2.02-6.07,3.1-9.48,3.08Z"/>
    <path id="Path_334" data-name="Path 334" class="cls-1" d="M262.91,172.47c-6.32,0-12.03-3.77-14.53-9.57l-38.91-89.62c-.18-.45,.03-.95,.47-1.15,.43-.2,.94,0,1.13,.42,0,0,0,.02,.01,.03l38.88,89.62c3.09,7.12,11.36,10.39,18.49,7.31,12.68-5.36,26.32-8.1,40.09-8.07,.48,0,.87,.4,.87,.89,0,.48-.39,.87-.87,.87h0c-13.54,0-26.94,2.75-39.39,8.07-1.98,.81-4.1,1.22-6.23,1.19Z"/>
    <path id="Path_335" data-name="Path 335" class="cls-1" d="M308.52,150.7c-.49,0-.89-.4-.89-.89h0c0-.48,.4-.87,.89-.87h0c7.77-.02,14.05-6.31,14.06-14.08V25.98c0-.49,.4-.89,.89-.89h0c.48,0,.87,.39,.87,.87,0,0,0,.01,0,.02v108.88c0,8.74-7.09,15.82-15.82,15.84Z"/>
    <circle id="Ellipse_12" data-name="Ellipse 12" class="cls-1" cx="263.01" cy="103.94" r="10.16" transform="translate(66.33 307.16) rotate(-67.5)"/>
    <circle id="Ellipse_13" data-name="Ellipse 13" class="cls-1" cx="166.15" cy="174.31" r="7.49"/>
    <circle id="Ellipse_14" data-name="Ellipse 14" class="cls-1" cx="374.43" cy="134.09" r="10.16" transform="translate(219.84 500.53) rotate(-86.83)"/>
    <path id="Path_336" data-name="Path 336" class="cls-6" d="M430.18,194.65c-3.64,0-6.59-2.95-6.59-6.59s2.95-6.59,6.59-6.59,6.59,2.95,6.59,6.59v.02h0c0,3.63-2.94,6.57-6.57,6.57h-.02Z"/>
    <path id="Path_337" data-name="Path 337" class="cls-6" d="M499.49,300.71c-3.64,0-6.59-2.93-6.6-6.57,0-3.64,2.93-6.59,6.57-6.6,3.64,0,6.59,2.93,6.6,6.57,0,.01,0,.02,0,.03h0c0,3.63-2.94,6.57-6.57,6.57h0Z"/>
    <path id="Path_338" data-name="Path 338" class="cls-1" d="M485.53,385.99c-4.34,0-7.87-3.5-7.88-7.85,0-4.34,3.5-7.87,7.85-7.88,4.34,0,7.87,3.5,7.88,7.85v.02c0,4.34-3.51,7.85-7.85,7.86Z"/>
    <circle id="Ellipse_15" data-name="Ellipse 15" class="cls-1" cx="314.8" cy="432.73" r="7.85" transform="translate(-91 83.9) rotate(-13.28)"/>
    <circle id="Ellipse_16" data-name="Ellipse 16" class="cls-1" cx="224.66" cy="432.07" r="7.85"/>
    <circle id="Ellipse_17" data-name="Ellipse 17" class="cls-1" cx="84.55" cy="369.04" r="7.85" transform="translate(-284.14 283.01) rotate(-63.96)"/>
    <circle id="Ellipse_18" data-name="Ellipse 18" class="cls-1" cx="131.65" cy="432.73" r="7.85" transform="translate(-119.75 56.72) rotate(-16.85)"/>
    <circle id="Ellipse_19" data-name="Ellipse 19" class="cls-1" cx="296.04" cy="464.7" r="7.85" transform="translate(-44.35 31.43) rotate(-5.65)"/>
    <circle id="Ellipse_20" data-name="Ellipse 20" class="cls-1" cx="364.92" cy="453.52" r="7.85"/>
    <g id="Group_1198" data-name="Group 1198">
      <circle id="Ellipse_21" data-name="Ellipse 21" class="cls-6" cx="432.12" cy="436.28" r="17.24"/>
    </g>
    <g id="Group_1199" data-name="Group 1199">
      <circle id="Ellipse_22" data-name="Ellipse 22" class="cls-1" cx="514.55" cy="183.32" r="22.47" transform="translate(-28.35 123.12) rotate(-13.28)"/>
    </g>
    <g id="Group_1200" data-name="Group 1200">
      <circle id="Ellipse_23" data-name="Ellipse 23" class="cls-1" cx="178.7" cy="127.5" r="27.48"/>
    </g>
    <g id="Group_1201" data-name="Group 1201">
      <circle id="Ellipse_24" data-name="Ellipse 24" class="cls-1" cx="323.47" cy="25.98" r="25.98" transform="translate(131.32 287.48) rotate(-58.28)"/>
    </g>
    <g id="Group_1202" data-name="Group 1202">
      <circle id="Ellipse_25" data-name="Ellipse 25" class="cls-6" cx="210.28" cy="72.93" r="20.97"/>
    </g>
    <g id="Group_1203" data-name="Group 1203">
      <circle id="Ellipse_26" data-name="Ellipse 26" class="cls-1" cx="74.61" cy="434.46" r="25.75" transform="translate(-365.11 403.34) rotate(-76.21)"/>
    </g>
    <g id="Group_1204" data-name="Group 1204">
      <circle id="Ellipse_27" data-name="Ellipse 27" class="cls-6" cx="541.44" cy="254.97" r="19.36"/>
    </g>
    <g id="Group_1205" data-name="Group 1205">
      <circle id="Ellipse_28" data-name="Ellipse 28" class="cls-1" cx="566.51" cy="322.83" r="21.12"/>
    </g>
    <g id="Group_1206" data-name="Group 1206">
      <circle id="Ellipse_29" data-name="Ellipse 29" class="cls-1" cx="493.13" cy="415.31" r="16.76"/>
    </g>
    <g id="Group_1207" data-name="Group 1207">
      <circle id="Ellipse_30" data-name="Ellipse 30" class="cls-1" cx="24.19" cy="194.65" r="24.19"/>
    </g>
    <g id="Group_1208" data-name="Group 1208">
      <circle id="Ellipse_31" data-name="Ellipse 31" class="cls-6" cx="29.85" cy="296.87" r="24.72"/>
    </g>
    <path id="Path_339" data-name="Path 339" class="cls-2" d="M385.76,261.94c-1.38-42.65-37.08-76.11-79.73-74.73-27.15,.88-51.85,15.95-65.05,39.7-20.75-10.73-46.27-2.6-57,18.15-2.15,4.15-3.59,8.63-4.27,13.25-29.6,12.41-43.54,46.47-31.13,76.08,9.09,21.68,30.35,35.76,53.86,35.65h172.98c30.11-.04,54.49-24.48,54.46-54.59-.03-26.08-18.52-48.48-44.12-53.46v-.05Zm-10.33,101.57H202.45c-28.53,.08-51.73-22.99-51.81-51.52-.06-20.83,12.41-39.66,31.61-47.75l3.34-1.42,.53-3.6c2.68-17.52,17.72-30.48,35.44-30.55,5.72-.01,11.36,1.35,16.44,3.99l5.59,2.89,3.07-5.49c19.02-34.17,62.14-46.46,96.31-27.44,21.72,12.09,35.51,34.69,36.34,59.53l.16,5.17,5.09,.97c26.08,4.84,43.3,29.91,38.46,55.99-4.25,22.89-24.3,39.44-47.59,39.27v-.03Z"/>
  </g>
  <polygon class="cls-5" points="289.02 322.57 275.55 322.57 275.55 288.92 282.28 288.92 282.28 315.84 289.02 315.84 289.02 322.57"/>
  <polygon class="cls-5" points="282.28 359.6 262.09 359.6 262.09 288.92 268.82 288.92 268.82 352.87 275.55 352.87 275.55 342.77 282.28 342.77 282.28 336.04 275.55 336.04 275.55 329.31 289.02 329.31 289.02 349.5 282.28 349.5 282.28 359.6"/>
  <path class="cls-5" d="M272.19,292.28c-14.81,0-26.92-12.12-26.92-26.92s12.12-26.92,26.92-26.92,26.92,12.12,26.92,26.92-12.12,26.92-26.92,26.92Zm0-47.12c-11.11,0-20.19,9.09-20.19,20.19s9.09,20.19,20.19,20.19,20.19-9.09,20.19-20.19-9.09-20.19-20.19-20.19Z"/>
  <g id="gGMK2K.tif">
    <g>
      <path class="cls-3" d="M264.03,284.47c-.21,1.13-.4,2.21-.6,3.29-.05,0-.09,0-.14,0-.22-1.3-.49-2.6-.65-3.91-.25-2.07-.31-4.14,.06-6.21,.27-1.49,.75-2.9,1.72-4.09,1.35-1.65,3.18-2.35,5.25-2.49,1.62-.11,3.15,.39,4.69,.82,1.85,.53,3.7,1.08,5.58,1.49,1.72,.37,3.46,.17,5.12-.36,2.46-.79,3.8-2.58,4.21-5.08,.4-2.43-.14-4.73-1.16-6.92-1.61-3.46-4.19-6.03-7.46-7.94-3.3-1.93-6.91-2.87-10.69-3.27-4.09-.44-8.13-.12-12.14,.76-.05,0-.1,0-.15,.01,5.68-6.1,16.47-8.81,25.75-3.25,8.98,5.37,12.72,16.68,8.31,26.52-2.35,5.24-6.27,8.94-11.65,11-5.36,2.06-10.7,1.82-16.05-.38h0Z"/>
      <path class="cls-3" d="M254.58,254.49c-1.48-.23-2.9-.45-4.31-.66v-.11c.87-.1,1.73-.24,2.59-.28,2.62-.13,5.25-.3,7.87-.3,3.9,0,7.76,.46,11.5,1.66,3.52,1.12,6.51,3.07,8.99,5.79,.43,.47,.78,1.05,1.04,1.63,.7,1.54,.23,2.94-1.21,3.82-1.5,.91-3.17,1.26-4.88,1.06-1.79-.21-3.56-.61-5.33-.97-3.42-.71-6.47,.14-9.22,2.17-1.78,1.31-2.32,3.25-2.4,5.35-.1,2.73,.51,5.34,1.32,7.92,.1,.32,.21,.63,.31,.95,0,.03,0,.06,.01,.09-3.17-1.18-7.64-7.56-8.76-12.72-1.17-5.4-.34-10.52,2.48-15.39Z"/>
    </g>
    <g>
      <path class="cls-4" d="M299.81,256.44h4.16c1.13,0,2.11,.36,2.92,1.09,.81,.73,1.22,1.59,1.22,2.59v5.5c0,.99-.41,1.85-1.22,2.57-.81,.73-1.79,1.09-2.92,1.09h-4.16c-1.13,0-2.11-.36-2.92-1.08s-1.22-1.58-1.22-2.58v-5.5c0-1.01,.41-1.88,1.23-2.6s1.79-1.08,2.92-1.08h0Zm0,3.68v5.5c0,.49,.2,.92,.61,1.28,.41,.36,.9,.54,1.47,.54s1.07-.18,1.47-.54,.61-.79,.61-1.28v-5.5c0-.5-.21-.94-.62-1.3-.41-.36-.9-.54-1.46-.54s-1.06,.18-1.47,.54c-.41,.36-.61,.79-.61,1.3Z"/>
      <path class="cls-4" d="M324.72,269.28h-4.14v-1.84c-.16,1.23-.86,1.84-2.08,1.84h-2.08c-1.13,0-2.11-.36-2.92-1.08s-1.22-1.58-1.22-2.58v-5.5c0-1.01,.41-1.88,1.23-2.6,.82-.72,1.79-1.08,2.92-1.08h4.16v-3.66h4.14v16.5h0Zm-4.14-11h-2.08c-.57,0-1.06,.18-1.47,.54-.41,.36-.61,.79-.61,1.3v5.5c0,.49,.2,.92,.61,1.28,.41,.36,.9,.54,1.47,.54s1.07-.18,1.47-.54,.61-.79,.61-1.28v-7.34Z"/>
      <path class="cls-4" d="M333.01,256.44h4.16c1.13,0,2.11,.36,2.92,1.09,.81,.73,1.22,1.59,1.22,2.59v5.5c0,.99-.41,1.85-1.22,2.57-.81,.73-1.79,1.09-2.92,1.09h-4.16c-1.13,0-2.11-.36-2.92-1.08s-1.22-1.58-1.22-2.58v-5.5c0-1.01,.41-1.88,1.23-2.6,.82-.72,1.79-1.08,2.92-1.08h0Zm0,3.68v5.5c0,.49,.2,.92,.61,1.28,.41,.36,.9,.54,1.47,.54s1.07-.18,1.47-.54,.61-.79,.61-1.28v-5.5c0-.5-.21-.94-.62-1.3-.41-.36-.9-.54-1.46-.54s-1.06,.18-1.47,.54c-.41,.36-.61,.79-.61,1.3h0Z"/>
      <path class="cls-4" d="M349.6,269.28h-4.14v-12.84h4.14v3.68c.16-1.22,.59-2.15,1.28-2.76,.69-.61,1.65-.92,2.88-.92h2.06v3.68h-4.14c-.57,0-1.06,.18-1.47,.54-.41,.36-.61,.79-.61,1.28v7.34h0Z"/>
      <path class="cls-4" d="M357.91,269.28v-12.84h4.14v1.84c.08-.62,.3-1.08,.65-1.38,.35-.3,.83-.46,1.43-.46h2.08c1.13,0,2.11,.36,2.92,1.09,.81,.73,1.22,1.59,1.22,2.59v9.16h-4.14v-9.16c0-.5-.21-.94-.62-1.3-.41-.36-.9-.54-1.46-.54s-1.06,.18-1.47,.54c-.41,.36-.61,.79-.61,1.3v9.16h-4.14Z"/>
    </g>
  </g>
  <g>
    <path d="M313.67,312.76h2.78c.7,0,1.29,.06,1.76,.19,.47,.12,.85,.32,1.13,.58,.28,.26,.48,.59,.6,.99,.12,.4,.17,.88,.17,1.44,0,.58-.07,1.08-.21,1.5s-.36,.75-.65,1.01-.67,.45-1.14,.57-1.02,.18-1.66,.18h-1.48v3.54h-1.3v-9.98Zm2.67,5.37c.46,0,.85-.03,1.17-.1s.57-.18,.76-.35,.32-.39,.4-.67,.12-.63,.12-1.05c0-.38-.04-.71-.12-.97s-.22-.48-.4-.64-.44-.28-.76-.35c-.32-.07-.71-.11-1.17-.11h-1.37v4.24h1.37Z"/>
    <path d="M325.4,322.89c-.58,0-1.09-.06-1.54-.19-.45-.13-.82-.35-1.13-.66s-.54-.72-.7-1.24c-.16-.51-.24-1.16-.24-1.94s.08-1.42,.24-1.93c.16-.51,.39-.93,.7-1.24s.68-.53,1.13-.66c.45-.13,.96-.19,1.54-.19s1.09,.06,1.54,.19c.45,.13,.82,.35,1.12,.66s.53,.72,.69,1.24c.16,.51,.24,1.16,.24,1.93s-.08,1.42-.24,1.94-.39,.93-.69,1.24-.68,.53-1.12,.66c-.45,.13-.96,.19-1.54,.19Zm0-1.05c.44,0,.81-.05,1.1-.14s.53-.26,.7-.49c.17-.23,.29-.54,.37-.92s.11-.86,.11-1.42-.04-1.04-.12-1.42c-.08-.38-.21-.69-.38-.92-.18-.23-.41-.4-.71-.5s-.65-.15-1.07-.15-.79,.05-1.09,.15-.53,.27-.71,.5-.3,.54-.38,.92-.11,.86-.11,1.42,.04,1.04,.12,1.42c.08,.38,.21,.69,.39,.92,.18,.23,.42,.39,.71,.49s.64,.14,1.07,.14Z"/>
    <path d="M337.71,311.81v10.93h-1.05l-.19-1.28c-.15,.41-.44,.75-.85,1.02s-.98,.4-1.69,.4c-.64,0-1.17-.1-1.59-.29s-.75-.47-.99-.83c-.24-.35-.41-.78-.5-1.27-.09-.49-.14-1.04-.14-1.63,0-.53,.05-1.04,.14-1.52,.09-.49,.26-.92,.5-1.29,.24-.37,.57-.66,.99-.88,.42-.22,.95-.33,1.59-.33,.38,0,.72,.04,1,.11,.28,.07,.52,.17,.72,.3,.2,.13,.37,.29,.5,.47,.13,.18,.24,.39,.32,.62v-4.52h1.24Zm-3.59,10.03c.47,0,.86-.07,1.17-.2,.31-.13,.55-.33,.73-.59,.18-.26,.31-.57,.38-.94s.11-.78,.11-1.25-.04-.85-.11-1.21-.2-.69-.38-.95c-.18-.26-.43-.47-.73-.61-.31-.14-.7-.22-1.17-.22s-.84,.08-1.12,.25c-.27,.17-.48,.39-.63,.68-.14,.28-.24,.6-.27,.96-.04,.36-.06,.73-.06,1.1,0,.4,.02,.79,.07,1.15,.04,.36,.14,.68,.28,.95,.14,.27,.35,.48,.63,.64,.27,.16,.64,.24,1.1,.24Z"/>
    <path d="M343.46,322.89c-.58,0-1.09-.06-1.54-.19-.45-.13-.82-.35-1.13-.66s-.54-.72-.7-1.24c-.16-.51-.24-1.16-.24-1.94s.08-1.42,.24-1.93c.16-.51,.39-.93,.7-1.24s.68-.53,1.13-.66c.45-.13,.96-.19,1.54-.19s1.09,.06,1.54,.19c.45,.13,.82,.35,1.12,.66s.53,.72,.69,1.24c.16,.51,.24,1.16,.24,1.93s-.08,1.42-.24,1.94-.39,.93-.69,1.24-.68,.53-1.12,.66c-.45,.13-.96,.19-1.54,.19Zm0-1.05c.44,0,.81-.05,1.1-.14s.53-.26,.7-.49c.17-.23,.29-.54,.37-.92s.11-.86,.11-1.42-.04-1.04-.12-1.42c-.08-.38-.21-.69-.38-.92-.18-.23-.41-.4-.71-.5s-.65-.15-1.07-.15-.79,.05-1.09,.15-.53,.27-.71,.5-.3,.54-.38,.92-.11,.86-.11,1.42,.04,1.04,.12,1.42c.08,.38,.21,.69,.39,.92,.18,.23,.42,.39,.71,.49s.64,.14,1.07,.14Z"/>
    <path d="M353.08,314.83l-.04,1.12h-.17c-.25,0-.5,.02-.74,.07-.24,.05-.47,.14-.68,.27-.21,.13-.4,.3-.58,.53s-.31,.5-.42,.85v5.08h-1.24v-7.77h1.24v1.41c.12-.33,.28-.59,.46-.79,.18-.2,.38-.36,.61-.47s.45-.19,.7-.23c.25-.04,.48-.06,.71-.06h.14Z"/>
    <path d="M358.42,314.83c.51,0,.93,.06,1.27,.19,.34,.12,.6,.3,.8,.53,.2,.23,.34,.49,.42,.8,.08,.31,.12,.65,.12,1.02v5.38h-1.25v-4.92c0-.3-.02-.56-.06-.8-.04-.23-.11-.43-.22-.59s-.26-.28-.45-.37c-.19-.09-.44-.13-.75-.13-.25,0-.49,.02-.73,.05-.24,.03-.46,.11-.66,.22-.21,.11-.39,.27-.56,.47-.17,.2-.31,.47-.41,.82v5.25h-1.24v-7.77h1.24v1.11c.12-.25,.27-.46,.45-.62s.39-.29,.61-.38c.22-.09,.45-.16,.7-.19,.25-.04,.49-.06,.73-.06Z"/>
    <path d="M363.32,317.81h4.25v1.04h-4.25v-1.04Z"/>
    <path d="M375.62,319.77h-4.42l-1.1,2.98h-1.33l3.79-9.98h1.73l3.78,9.98h-1.37l-1.08-2.98Zm-.42-1.15l-1.69-4.65h-.17l-1.71,4.65h3.57Z"/>
    <path d="M383.53,322.89c-.69,0-1.32-.07-1.87-.22-.56-.14-1.04-.4-1.43-.78-.4-.38-.71-.9-.92-1.57-.22-.67-.32-1.52-.32-2.57,0-.96,.11-1.77,.33-2.42s.53-1.19,.94-1.59c.4-.4,.9-.69,1.48-.86,.58-.17,1.23-.26,1.95-.26,.46,0,.86,.02,1.2,.07,.34,.05,.66,.12,.96,.21v1.19c-.29-.11-.61-.19-.95-.25-.35-.06-.74-.09-1.18-.09-.57,0-1.06,.07-1.48,.2s-.77,.36-1.05,.67c-.28,.31-.49,.72-.63,1.22-.14,.5-.21,1.13-.21,1.88,0,.8,.06,1.45,.19,1.96,.13,.51,.33,.92,.59,1.22,.26,.3,.6,.51,1.01,.63s.89,.18,1.45,.18c.47,0,.89-.03,1.25-.09,.37-.06,.74-.16,1.12-.29v1.12c-.28,.12-.62,.23-1.04,.31-.41,.08-.88,.12-1.38,.12Z"/>
    <path d="M392.17,322.89c-.69,0-1.32-.07-1.87-.22-.56-.14-1.04-.4-1.43-.78-.4-.38-.71-.9-.92-1.57-.22-.67-.32-1.52-.32-2.57,0-.96,.11-1.77,.33-2.42s.53-1.19,.94-1.59c.4-.4,.9-.69,1.48-.86,.58-.17,1.23-.26,1.95-.26,.46,0,.86,.02,1.2,.07,.34,.05,.66,.12,.96,.21v1.19c-.29-.11-.61-.19-.95-.25-.35-.06-.74-.09-1.18-.09-.57,0-1.06,.07-1.48,.2s-.77,.36-1.05,.67c-.28,.31-.49,.72-.63,1.22-.14,.5-.21,1.13-.21,1.88,0,.8,.06,1.45,.19,1.96,.13,.51,.33,.92,.59,1.22,.26,.3,.6,.51,1.01,.63s.89,.18,1.45,.18c.47,0,.89-.03,1.25-.09,.37-.06,.74-.16,1.12-.29v1.12c-.28,.12-.62,.23-1.04,.31-.41,.08-.88,.12-1.38,.12Z"/>
  </g>
  <g>
    <path d="M316.61,340.17c-.3,.07-.66,.15-1.1,.24-.44,.09-.88,.18-1.34,.27-.46,.09-.91,.18-1.35,.26-.44,.08-.8,.15-1.09,.19l-.19-1.02c.3-.05,.67-.11,1.11-.19,.44-.08,.9-.17,1.37-.26,.47-.09,.92-.18,1.36-.28,.44-.1,.8-.18,1.1-.26l.07,.63,.06,.42Zm-3.96-5.75c-.1,0-.2,.02-.31,.04s-.21,.04-.31,.07l-.22-1.02c.11-.04,.21-.08,.27-.13,.07-.05,.14-.12,.22-.23,.12-.17,.27-.41,.45-.71s.35-.64,.54-1c.19-.36,.37-.74,.55-1.14,.18-.39,.34-.77,.47-1.12l.93,.42c-.13,.32-.29,.66-.46,1.01s-.35,.71-.53,1.06c-.18,.35-.36,.68-.54,.98-.18,.3-.33,.55-.47,.74l1.71-.09c.14-.27,.29-.53,.42-.79,.14-.26,.26-.51,.37-.75l.89,.46c-.18,.39-.39,.81-.63,1.26-.24,.45-.48,.88-.73,1.31-.24,.43-.48,.83-.72,1.2-.24,.37-.44,.69-.63,.94l2.37-.33v1.02s-.15,.03-.3,.05c-.15,.02-.34,.05-.55,.08-.21,.03-.43,.06-.67,.1-.23,.04-.46,.08-.68,.11s-.41,.06-.59,.09c-.18,.03-.3,.05-.38,.06-.1,0-.22,.03-.38,.06-.16,.03-.3,.06-.44,.1l-.25-.99c.13-.04,.27-.1,.4-.18,.13-.08,.24-.18,.32-.31,.21-.3,.45-.66,.73-1.09s.55-.89,.84-1.38c-.16,0-.34,.02-.52,.03-.18,0-.35,.02-.51,.03-.16,0-.3,.02-.42,.03-.12,0-.22,.01-.27,.01Zm11.9,4.76c-.02,.31-.04,.61-.06,.91-.02,.3-.07,.58-.14,.86-.07,.29-.21,.51-.42,.65s-.57,.24-1.08,.27c-.27,.02-.53,.02-.79,0-.25,0-.46-.04-.63-.09-.17-.05-.32-.12-.43-.23-.11-.11-.2-.25-.25-.44-.05-.19-.08-.43-.08-.73v-4.53l-1.58,.09v.5c0,.17,0,.31-.01,.42-.02,.68-.08,1.28-.19,1.81s-.28,1-.52,1.43c-.24,.43-.56,.83-.96,1.2-.4,.37-.91,.74-1.53,1.11l-.65-.88c.58-.34,1.04-.65,1.4-.95,.36-.3,.65-.62,.86-.96,.21-.34,.36-.75,.44-1.2,.08-.46,.13-1.01,.15-1.66,0-.08,.01-.19,.01-.33v-.45c-.31,.02-.51,.03-.6,.04-.05,0-.12,0-.21,.01-.09,0-.18,.02-.28,.03s-.19,.02-.29,.04c-.1,.01-.17,.03-.23,.04l-.27-.93c.13-.04,.26-.09,.37-.14,.12-.06,.2-.12,.26-.2,.13-.14,.29-.33,.47-.55,.18-.22,.36-.46,.55-.73,.19-.27,.38-.54,.58-.83,.19-.28,.37-.55,.55-.81h-2.56v-.99h3.38c-.08-.31-.18-.62-.29-.95-.12-.33-.22-.58-.31-.78l1.04-.19c.05,.12,.1,.25,.16,.41s.12,.33,.18,.5c.06,.18,.12,.35,.18,.53s.11,.33,.14,.47h3.29v.99h-4.07c-.16,.26-.34,.54-.53,.83-.19,.3-.39,.58-.58,.86s-.39,.54-.57,.78c-.18,.24-.34,.44-.49,.6,.12,0,.36,0,.7-.02,.34-.01,.72-.03,1.14-.05,.42-.02,.85-.04,1.29-.06s.82-.04,1.14-.06c-.22-.33-.44-.64-.67-.93-.23-.29-.42-.54-.58-.73l.78-.53c.17,.19,.37,.43,.59,.72,.22,.29,.44,.59,.67,.9,.22,.31,.44,.62,.63,.92,.2,.3,.35,.56,.47,.78l-.76,.78c-.07-.14-.15-.3-.24-.46-.09-.16-.19-.34-.29-.52-.13,0-.3,0-.5,.01s-.43,.02-.68,.03v4.39c0,.15,0,.27,.03,.36s.05,.15,.1,.2,.11,.08,.19,.1c.08,.02,.18,.03,.31,.04,.15,.02,.31,.02,.47,0,.25-.02,.43-.07,.54-.14,.11-.08,.19-.22,.24-.45,.06-.28,.09-.52,.11-.73s.03-.45,.04-.73l.89,.32Z"/>
    <path d="M338.69,335.82h-12.72v-1.22h12.72v1.22Z"/>
    <path d="M349.95,333.5c.42,.33,.89,.63,1.42,.91,.52,.28,1.12,.55,1.78,.82l-.49,.96c-.83-.38-1.56-.78-2.2-1.18-.64-.4-1.21-.85-1.71-1.34v.62h-4.59v-.68c-.52,.49-1.1,.95-1.74,1.38s-1.36,.85-2.14,1.27l-.46-.89c.65-.34,1.25-.67,1.78-1.01s1.02-.69,1.45-1.05c.43-.36,.82-.75,1.16-1.14,.34-.4,.64-.82,.9-1.27h-4.32v-.91h5.41v.94c-.47,.92-1.08,1.75-1.84,2.49h4.13c-.49-.52-.91-1.09-1.27-1.73-.35-.63-.66-1.36-.91-2.17l.92-.17c.1,.3,.2,.58,.3,.84s.22,.52,.33,.77c.2-.11,.42-.23,.65-.37,.23-.14,.46-.28,.68-.42,.22-.14,.43-.29,.63-.44s.37-.28,.52-.4l.58,.76c-.14,.12-.32,.26-.53,.41-.21,.15-.44,.3-.68,.45-.24,.15-.48,.29-.72,.43-.24,.14-.46,.26-.68,.37,.13,.19,.28,.38,.42,.56,.15,.18,.3,.36,.47,.53,.2-.1,.42-.21,.65-.35,.23-.14,.46-.28,.69-.43,.23-.15,.45-.29,.66-.44,.21-.14,.38-.28,.52-.4l.59,.79c-.13,.11-.29,.22-.48,.35-.19,.13-.39,.26-.6,.4-.21,.13-.43,.27-.65,.4-.22,.13-.43,.25-.63,.35Zm-.49,5.68c-.12,.2-.29,.46-.5,.78s-.42,.61-.63,.89h3.84v.92h-11.42v-.92h3.75c-.16-.26-.35-.54-.55-.84-.21-.3-.39-.55-.55-.74l.76-.45c.09,.09,.18,.19,.29,.32s.21,.27,.32,.41c.11,.14,.21,.29,.32,.45,.11,.15,.21,.3,.29,.45l-.59,.4h2.45c.11-.12,.23-.28,.36-.46,.13-.18,.27-.37,.4-.56,.13-.19,.25-.38,.37-.56,.12-.18,.21-.34,.29-.47l.82,.39Zm-6.73-5.68c-.1-.13-.22-.28-.36-.44-.14-.16-.29-.32-.45-.47s-.32-.3-.47-.44c-.16-.13-.29-.24-.41-.33l.62-.66c.11,.08,.24,.18,.4,.31,.16,.13,.32,.27,.47,.41s.31,.29,.46,.43c.15,.14,.27,.26,.37,.36l-.62,.83Zm7.8,5.15h-8.13v-3.14h8.13v3.14Zm-1.01-2.27h-6.13v1.4h6.13v-1.4Z"/>
    <path d="M360,338.28c-.31,.21-.69,.46-1.14,.74-.45,.28-.92,.57-1.4,.85-.48,.28-.95,.55-1.41,.81-.46,.26-.85,.46-1.17,.62l-.59-.91c.34-.14,.74-.34,1.2-.6,.47-.25,.94-.52,1.43-.81s.96-.57,1.42-.85c.46-.28,.84-.54,1.14-.76l.26,.46,.24,.43Zm3.25,.14c.48,.4,1.03,.77,1.65,1.1,.62,.33,1.35,.65,2.18,.94l-.56,.96c-.68-.28-1.29-.56-1.83-.84-.54-.28-1.02-.58-1.45-.88-.43-.31-.82-.64-1.16-1-.34-.36-.65-.75-.94-1.19v2.89c0,.31-.03,.56-.08,.75-.05,.19-.15,.35-.29,.46-.14,.12-.34,.2-.59,.27-.25,.06-.58,.11-.98,.14l-.92,.07-.34-1.05,1.05-.06c.26-.02,.46-.04,.6-.07,.14-.03,.25-.08,.33-.15,.08-.07,.12-.17,.14-.29,.02-.12,.03-.28,.03-.48v-4.59h-5.54v-.93h9.34v-1.35h-7.83v-.92h7.83v-1.38h-8.2v-.95h9.28v4.6h1.93v.93h-5.75v.25c.18,.38,.38,.74,.6,1.08s.46,.66,.74,.96c.22-.14,.46-.31,.72-.49,.26-.18,.51-.37,.76-.57,.25-.2,.49-.39,.71-.58,.22-.19,.42-.36,.58-.52l.69,.86c-.15,.14-.34,.3-.55,.48-.22,.18-.45,.36-.69,.54-.24,.18-.49,.36-.74,.53-.25,.17-.48,.33-.71,.47Zm-5.51-.24c-.13-.14-.3-.31-.5-.49-.2-.18-.41-.36-.62-.53-.21-.17-.42-.34-.62-.49-.2-.15-.37-.28-.52-.39l.6-.78c.14,.1,.32,.22,.52,.37,.2,.15,.41,.3,.63,.47s.43,.33,.63,.5c.21,.17,.38,.31,.51,.44l-.63,.91Z"/>
    <path d="M372.91,339.01c-.28,.23-.58,.47-.92,.72-.34,.25-.68,.49-1.04,.73-.36,.24-.72,.47-1.09,.7-.37,.23-.72,.43-1.04,.61l-.53-.91c.31-.16,.64-.35,1-.57,.36-.21,.72-.44,1.08-.68,.36-.23,.71-.48,1.04-.73,.33-.25,.63-.49,.88-.73l.63,.85Zm6.33-1.58c-.58,.02-1.17,.04-1.8,.05-.62,.01-1.26,.03-1.91,.05v2.92c0,.31-.02,.55-.07,.74-.05,.19-.14,.34-.28,.45-.14,.11-.33,.19-.58,.24-.24,.05-.57,.1-.97,.14l-.82,.07-.36-1.07,1.01-.09c.22-.02,.4-.04,.53-.07,.13-.03,.24-.07,.3-.13,.07-.06,.11-.13,.13-.22,.02-.09,.03-.21,.03-.37v-2.58c-.63,.02-1.25,.04-1.84,.06-.59,.02-1.16,.06-1.7,.09-.16,0-.38,.03-.64,.05-.26,.02-.49,.05-.68,.07l-.22-1.09c.16-.02,.35-.05,.55-.09s.38-.08,.51-.13c.66-.23,1.33-.53,2.01-.88,.68-.36,1.35-.76,2.01-1.2-.33,0-.67,.02-1.04,.03-.37,0-.72,.02-1.06,.03-.34,0-.64,.02-.91,.03-.27,0-.47,.02-.6,.03-.12,0-.27,0-.45,.02s-.37,.03-.59,.05l-.2-.95c.33-.05,.56-.09,.71-.13s.28-.09,.4-.16c.42-.24,.88-.54,1.37-.91,.49-.37,.97-.76,1.43-1.18-.79,.05-1.54,.09-2.24,.13-.71,.04-1.34,.07-1.88,.09l-.19-1.05c.48,0,1.02-.03,1.62-.05,.6-.02,1.23-.06,1.88-.09,.66-.04,1.33-.08,2.01-.12,.68-.04,1.34-.09,1.99-.14s1.26-.1,1.85-.16c.58-.06,1.1-.12,1.55-.17l.17,1.05c-.37,.04-.79,.08-1.26,.12-.47,.04-.96,.08-1.47,.12-.52,.04-1.05,.08-1.6,.11-.55,.04-1.11,.08-1.66,.12l.3,.36c-.44,.42-.86,.79-1.24,1.1s-.8,.6-1.23,.87c.12,0,.34,0,.65-.01s.64-.02,1.01-.04c.36-.01,.73-.03,1.09-.04s.68-.03,.94-.04c.4-.31,.79-.62,1.17-.94,.37-.32,.73-.64,1.06-.97l.69,.81c-.44,.41-.91,.82-1.4,1.22-.49,.4-1,.78-1.52,1.14-.52,.36-1.03,.71-1.55,1.03-.51,.32-1.01,.61-1.49,.86,.37,0,.79-.02,1.25-.04,.46-.02,.93-.04,1.42-.06,.49-.02,.98-.04,1.48-.06,.5-.02,.97-.04,1.41-.06-.24-.25-.47-.48-.7-.71-.23-.22-.42-.41-.6-.56l.78-.66c.2,.17,.44,.39,.71,.66,.27,.27,.55,.55,.83,.85,.28,.3,.54,.59,.79,.88,.25,.29,.45,.54,.6,.75l-.75,.81c-.19-.3-.44-.63-.75-.99Zm-2.11,.78c.26,.13,.57,.3,.93,.5,.36,.2,.73,.41,1.11,.64,.38,.23,.76,.46,1.14,.71,.37,.24,.7,.46,.98,.68l-.5,1.02c-.23-.2-.53-.43-.9-.68-.37-.25-.75-.51-1.15-.75s-.79-.48-1.17-.71c-.38-.22-.71-.4-.96-.53l.53-.86Z"/>
    <path d="M387.39,340.17c-.3,.07-.66,.15-1.1,.24-.44,.09-.88,.18-1.34,.27-.46,.09-.91,.18-1.35,.26-.44,.08-.8,.15-1.09,.19l-.19-1.02c.3-.05,.67-.11,1.11-.19,.44-.08,.9-.17,1.37-.26,.47-.09,.92-.18,1.36-.28,.44-.1,.8-.18,1.1-.26l.07,.63,.06,.42Zm-3.96-5.75c-.1,0-.2,.02-.31,.04s-.21,.04-.31,.07l-.22-1.02c.11-.04,.21-.08,.27-.13,.07-.05,.14-.12,.22-.23,.12-.17,.27-.41,.45-.71s.35-.64,.54-1c.19-.36,.37-.74,.55-1.14,.18-.39,.34-.77,.47-1.12l.93,.42c-.13,.32-.29,.66-.46,1.01s-.35,.71-.53,1.06c-.18,.35-.36,.68-.54,.98-.18,.3-.33,.55-.47,.74l1.71-.09c.14-.27,.29-.53,.42-.79,.14-.26,.26-.51,.37-.75l.89,.46c-.18,.39-.39,.81-.63,1.26-.24,.45-.48,.88-.73,1.31-.24,.43-.48,.83-.72,1.2-.24,.37-.44,.69-.63,.94l2.37-.33v1.02s-.15,.03-.3,.05c-.15,.02-.34,.05-.55,.08-.21,.03-.43,.06-.67,.1-.23,.04-.46,.08-.68,.11s-.41,.06-.59,.09c-.18,.03-.3,.05-.38,.06-.1,0-.22,.03-.38,.06-.16,.03-.3,.06-.44,.1l-.25-.99c.13-.04,.27-.1,.4-.18,.13-.08,.24-.18,.32-.31,.21-.3,.45-.66,.73-1.09s.55-.89,.84-1.38c-.16,0-.34,.02-.52,.03-.18,0-.35,.02-.51,.03-.16,0-.3,.02-.42,.03-.12,0-.22,.01-.27,.01Zm11.9,4.76c-.02,.31-.04,.61-.06,.91-.02,.3-.07,.58-.14,.86-.07,.29-.21,.51-.42,.65s-.57,.24-1.08,.27c-.27,.02-.53,.02-.79,0-.25,0-.46-.04-.63-.09-.17-.05-.32-.12-.43-.23-.11-.11-.2-.25-.25-.44-.05-.19-.08-.43-.08-.73v-4.53l-1.58,.09v.5c0,.17,0,.31-.01,.42-.02,.68-.08,1.28-.19,1.81s-.28,1-.52,1.43c-.24,.43-.56,.83-.96,1.2-.4,.37-.91,.74-1.53,1.11l-.65-.88c.58-.34,1.04-.65,1.4-.95,.36-.3,.65-.62,.86-.96,.21-.34,.36-.75,.44-1.2,.08-.46,.13-1.01,.15-1.66,0-.08,.01-.19,.01-.33v-.45c-.31,.02-.51,.03-.6,.04-.05,0-.12,0-.21,.01-.09,0-.18,.02-.28,.03s-.19,.02-.29,.04c-.1,.01-.17,.03-.23,.04l-.27-.93c.13-.04,.26-.09,.37-.14,.12-.06,.2-.12,.26-.2,.13-.14,.29-.33,.47-.55,.18-.22,.36-.46,.55-.73,.19-.27,.38-.54,.58-.83,.19-.28,.37-.55,.55-.81h-2.56v-.99h3.38c-.08-.31-.18-.62-.29-.95-.12-.33-.22-.58-.31-.78l1.04-.19c.05,.12,.1,.25,.16,.41s.12,.33,.18,.5c.06,.18,.12,.35,.18,.53s.11,.33,.14,.47h3.29v.99h-4.07c-.16,.26-.34,.54-.53,.83-.19,.3-.39,.58-.58,.86s-.39,.54-.57,.78c-.18,.24-.34,.44-.49,.6,.12,0,.36,0,.7-.02,.34-.01,.72-.03,1.14-.05,.42-.02,.85-.04,1.29-.06s.82-.04,1.14-.06c-.22-.33-.44-.64-.67-.93-.23-.29-.42-.54-.58-.73l.78-.53c.17,.19,.37,.43,.59,.72,.22,.29,.44,.59,.67,.9,.22,.31,.44,.62,.63,.92,.2,.3,.35,.56,.47,.78l-.76,.78c-.07-.14-.15-.3-.24-.46-.09-.16-.19-.34-.29-.52-.13,0-.3,0-.5,.01s-.43,.02-.68,.03v4.39c0,.15,0,.27,.03,.36s.05,.15,.1,.2,.11,.08,.19,.1c.08,.02,.18,.03,.31,.04,.15,.02,.31,.02,.47,0,.25-.02,.43-.07,.54-.14,.11-.08,.19-.22,.24-.45,.06-.28,.09-.52,.11-.73s.03-.45,.04-.73l.89,.32Z"/>
  </g>
</svg>