<?xml version="1.0" encoding="UTF-8"?>
<svg id="_图层_2" data-name="图层 2" xmlns="http://www.w3.org/2000/svg" width="216.76" height="217.5" viewBox="0 0 216.76 217.5">
  <defs>
    <style>
      .cls-1 {
        fill: #7636a3;
      }
    </style>
  </defs>
  <g id="_图层_1-2" data-name="图层 1">
    <path class="cls-1" d="M68.87,200.99c-1.03,5.67-2.01,11.08-2.99,16.48-.23,0-.46,.01-.68,.02-1.1-6.51-2.44-13-3.24-19.55-1.27-10.34-1.57-20.72,.3-31.06,1.35-7.45,3.74-14.51,8.62-20.45,6.77-8.24,15.91-11.77,26.26-12.47,8.12-.55,15.77,1.93,23.46,4.12,9.26,2.63,18.51,5.4,27.91,7.45,8.6,1.87,17.32,.85,25.64-1.82,12.31-3.95,19-12.91,21.07-25.43,2.01-12.17-.69-23.65-5.81-34.62-8.07-17.31-20.99-30.18-37.35-39.73-16.53-9.64-34.6-14.36-53.5-16.39-20.48-2.2-40.71-.59-60.77,3.8-.24,.05-.49,.05-.77,.07C65.43,.89,119.43-12.7,165.91,15.12c44.92,26.89,63.67,83.5,41.59,132.72-11.77,26.24-31.38,44.73-58.31,55.07-26.84,10.3-53.56,9.12-80.31-1.92Z"/>
    <path class="cls-1" d="M21.57,50.96c-7.4-1.14-14.49-2.23-21.57-3.32,0-.19,0-.37,0-.56,4.33-.48,8.64-1.2,12.98-1.41,13.13-.63,26.28-1.5,39.41-1.49,19.54,.02,38.84,2.32,57.57,8.29,17.61,5.61,32.57,15.36,44.98,28.97,2.15,2.35,3.88,5.24,5.2,8.15,3.48,7.72,1.16,14.71-6.07,19.1-7.52,4.57-15.88,6.31-24.44,5.33-8.97-1.03-17.84-3.03-26.7-4.86-17.1-3.54-32.39,.7-46.14,10.84-8.9,6.56-11.63,16.26-12.02,26.78-.51,13.65,2.56,26.72,6.63,39.62,.5,1.58,1.04,3.16,1.55,4.74,.05,.15,.05,.31,.07,.47-15.88-5.9-38.25-37.86-43.86-63.65-5.88-27.02-1.69-52.67,12.41-77Z"/>
  </g>
</svg>