<?xml version="1.0" encoding="iso-8859-1"?>
<!-- Generator: Adobe Illustrator 16.0.0, SVG Export Plug-In . SVG Version: 6.00 Build 0)  -->
<!DOCTYPE svg PUBLIC "-//W3C//DTD SVG 1.1//EN" "http://www.w3.org/Graphics/SVG/1.1/DTD/svg11.dtd">
<svg version="1.1" id="Capa_1" xmlns="http://www.w3.org/2000/svg" xmlns:xlink="http://www.w3.org/1999/xlink" x="0px" y="0px"
	 width="111.353px" height="111.353px" viewBox="0 0 111.353 111.353"
	 xml:space="preserve">
<g class="" style="pointer-events: none" transform="translate(-23.030093691982213,-23.030093691982213) scale(1.535339579465481,1.535339579465481)"><g transform="scale(0.14,0.14) translate(-210,-110)"><path d="m 262.15788,215.18241 -20,-20 14,0 0,-24 -24,0 0,14 -20,-20 20,-20 0,14 24,0 0,-24 -14,0 20,-20 20,20 -14,0 0,24 24,0 0,-14 20,20 -20,20 0,-14 -24,0 0,24 14,0 -20,20 z" style="fill:#000000;fill-opacity:1;fill-rule:evenodd;stroke:none"></path></g></g>
</svg>
